<svg width="64" height="64" viewBox="0 0 64 64" fill="none" xmlns="http://www.w3.org/2000/svg">
<circle cx="32" cy="32" r="32" fill="white"/>
<g clip-path="url(#clip0_17062_532)">
<path d="M32.0348 45.7142C31.6022 45.7142 31.2366 45.401 31.1318 44.9813C30.7979 43.6438 30.1587 42.2213 29.2142 40.7143C28.0952 38.9047 26.4999 37.2262 24.4285 35.6785C22.6269 34.3168 20.8253 33.3882 19.0237 32.8929C18.597 32.7756 18.2856 32.3972 18.2856 31.9547C18.2856 31.5208 18.585 31.1468 19.0022 31.0277C20.7685 30.5234 22.4702 29.7046 24.1071 28.5714C25.988 27.2618 27.5595 25.6904 28.8214 23.8571C29.9377 22.2239 30.704 20.6087 31.1203 19.0114C31.2294 18.593 31.5978 18.2856 32.0302 18.2856C32.4675 18.2856 32.8384 18.5998 32.9448 19.0239C33.1851 19.9815 33.5606 20.9616 34.0713 21.9642C34.7143 23.2023 35.5356 24.3928 36.5357 25.5356C37.5594 26.6547 38.7024 27.6666 39.9642 28.5714C41.6132 29.7402 43.2895 30.5615 44.9934 31.035C45.4114 31.1511 45.7142 31.5233 45.7142 31.9571C45.7142 32.3974 45.4022 32.7726 44.9776 32.889C43.8976 33.1851 42.7859 33.6627 41.6429 34.3213C40.2618 35.1309 38.9761 36.0952 37.7856 37.2142C36.5952 38.3095 35.619 39.4642 34.857 40.6785C33.9107 42.1887 33.2708 43.6221 32.9376 44.979C32.8342 45.3999 32.468 45.7142 32.0348 45.7142Z" fill="#FF3F00"/>
</g>
<defs>
<clipPath id="clip0_17062_532">
<rect width="27.4286" height="27.4286" fill="white" transform="translate(18.2856 18.2856)"/>
</clipPath>
</defs>
</svg>
