<svg width="104" height="104" viewBox="0 0 104 104" fill="none" xmlns="http://www.w3.org/2000/svg">
<g clip-path="url(#clip0_17064_188)">
<path d="M52.1321 104C50.4919 104 49.1055 102.812 48.7083 101.221C47.4423 96.1496 45.0187 90.7561 41.4375 85.0418C37.1945 78.1804 31.1458 71.8162 23.2917 65.948C16.4605 60.7849 9.62941 57.264 2.79832 55.3857C1.18043 54.9411 0 53.5064 0 51.8285C0 50.1834 1.13502 48.7653 2.71686 48.3137C9.41434 46.4014 15.8663 43.2968 22.0729 39C29.2049 34.0347 35.1632 28.0764 39.9479 21.125C44.1807 14.9326 47.0864 8.80818 48.6649 2.75188C49.0784 1.16529 50.4752 0 52.1149 0C53.7727 0 55.1793 1.1911 55.5828 2.79932C56.4938 6.43001 57.9176 10.1462 59.8541 13.9479C62.2918 18.6424 65.4061 23.1562 69.198 27.4896C73.0798 31.7326 77.4134 35.5695 82.198 39C88.4504 43.432 94.8064 46.5458 101.267 48.3413C102.852 48.7817 104 50.1927 104 51.8374C104 53.507 102.817 54.9297 101.207 55.3712C97.1121 56.4938 92.897 58.3045 88.5628 60.802C83.3264 63.8716 78.4514 67.5277 73.9372 71.7709C69.4236 75.9236 65.7223 80.302 62.8332 84.9061C59.2452 90.6324 56.8188 96.0674 55.5552 101.212C55.1632 102.808 53.7748 104 52.1321 104Z" fill="#FF3F00"/>
</g>
<defs>
<clipPath id="clip0_17064_188">
<rect width="104" height="104" fill="white"/>
</clipPath>
</defs>
</svg>
